# xmcd
#
# Track frame offsets: 
#        150
#        21946
#        42678
#        64872
#        83660
#        115948
#        134908
#        155939
#        182437
#        207086
#        227486
#        248214
#        275325
#
# Disc length: 3948 seconds
#
# Revision: 0
# Processed by: cddbd v1.5.1PL2 Copyright (c) Steve Scherf et al.
# Submitted via: ExactAudioCopy v0.95b3
#
DISCID=bb0f6a0d
DTITLE=Al Basile - Red Breath
DYEAR=2003
DGENRE=Blues
TTITLE0=Are You My Love?
TTITLE1=This Could Be The Year
TTITLE2=Could It Be You?
TTITLE3=You Took Me By Surprise
TTITLE4=I Didn't Know About You
TTITLE5=Four Kisses
TTITLE6=Facing The Winter Alone
TTITLE7=Love Moves On
TTITLE8=No More Sad Songs
TTITLE9=Stray Thoughts
TTITLE10=B.D.
TTITLE11=Love Turned Out The Light
TTITLE12=Born To Swing
EXTD=
EXTT0=
EXTT1=
EXTT2=
EXTT3=
EXTT4=
EXTT5=
EXTT6=
EXTT7=
EXTT8=
EXTT9=
EXTT10=
EXTT11=
EXTT12=
PLAYORDER=
